<svg xmlns="http://www.w3.org/2000/svg" viewBox="0 0 77.35 90.81"><title>ヘ音記号</title><g id="レイヤー_2" data-name="レイヤー 2"><g id="svg2"><path id="path4284" d="M0,90.05c0-.48,3.14-2.09,7-3.58,23.88-9.26,38-30.55,38-57.25,0-13.89-5.35-24-13.52-25.53C24.1,2.31,13.11,8.7,11,15.59c-.74,2.45-.55,2.52,5.1,1.85,5.07-.6,6.25-.34,8.66,1.92,3.55,3.34,4.6,8.15,2.9,13.29-1.58,4.79-4,6.34-10,6.34C6.16,39,1.2,26.71,7.54,14c3.39-6.8,9-11.14,17-13.13C37.73-2.42,51.3,3.93,58.07,16.51c3.27,6.08,3.48,21.38.41,30.21C53.38,61.39,39.69,76.88,26,83.4c-11,5.27-26,9.1-26,6.65ZM66.41,44.52c-2.33-3.32-2.26-4.73.31-7.06,5.42-4.9,12.64.15,9.64,6.74-1.74,3.82-7.37,4-10,.32Zm-.83-28c-2.75-6,5.23-11.57,9.91-6.89,4,4,1.22,9.72-4.6,9.72C67.74,19.39,66.59,18.78,65.58,16.55Z"/></g></g></svg>