<svg xmlns="http://www.w3.org/2000/svg" viewBox="0 0 82.35 236.25"><title>ト音記号</title><g id="レイヤー_2" data-name="レイヤー 2"><g id="svg2"><path id="path4197" d="M33.24,235.53a23.11,23.11,0,0,1-13.67-11c-1.44-2.91-1.49-3.15-1.49-7.2s0-4.24,1.67-7.56a24.54,24.54,0,0,1,3.29-5,16.69,16.69,0,0,1,8.55-4.22c4-.47,8.54,2.75,10.88,7.69,1.12,2.37,1.24,3,1.24,6.37s-.14,4-1.14,6.22a14.13,14.13,0,0,1-2.64,3.82A12,12,0,0,1,33,227.18c-1.6,0-1.69.66-.31,2.31s4.07,2.85,7.42,3.1c3.74.28,6.21-.29,10.88-2.53,5.11-2.45,8.64-5.88,9.84-9.58a37.61,37.61,0,0,0,1-17.35c-.32-1.63-.74-4.21-.94-5.74a54.65,54.65,0,0,0-1.8-7.3l-2-6.39c-.81-2.54-1.57-2.89-4.39-2-1.76.55-3.54.71-8.17.7-5.79,0-6,0-10.45-1.52-8-2.66-13.33-5.78-18.46-10.8A51.2,51.2,0,0,1,2.73,149.42,49.47,49.47,0,0,1,0,132.32c0-8.48,1.53-14.44,5.71-22.22,6.23-11.58,12-19.2,23.52-30.87l6.44-6.55-1.75-7.85c-2.81-12.62-3.36-18.24-2.65-27.17,1.15-14.3,4.38-24.37,10-31.16a18.74,18.74,0,0,1,5.91-5c3.37-2.09,4.46-2,6.73.52s6.47,10.74,7.92,15.35C64,24.23,64.56,28.8,64.58,40c0,11.07-.34,14.42-2.3,21.19A64,64,0,0,1,47.36,86.67c-3,3.14-4.22,4.64-4.08,5.13s.58,2.74,1,5.23c1.83,9.86,2.81,14.7,3.15,15.58s.7,1,3,1.17c8.17.76,10.9,1.34,14.25,3,7.45,3.75,13.62,11.65,16.5,21.13.94,3.11,1.06,4.12,1.09,9.78s-.07,6.66-.89,9.27c-2.8,9-8.88,16.4-16.49,20.14a11.79,11.79,0,0,0-3.46,2.2c-.27.71.55,5.87,1.93,12.17s3,17.62,3,21.1c0,11.35-6.84,20-18,22.88a38.76,38.76,0,0,1-15.19.06Zm19.08-57.79a10.33,10.33,0,0,0,3.13-1c.34-.34-.07-3.07-1.6-10.81-1.13-5.7-3-15.77-4.25-22.39s-2.3-12.18-2.41-12.36c-.3-.48-2,0-4,1.23-6.36,3.73-11,12.66-9.89,19.22a17.34,17.34,0,0,0,9,12.21c2,1,2.63,2,1.49,2.42C41.92,167,34,162.55,31,159.1c-4.11-4.61-5.69-9.11-5.71-16.32A24.5,24.5,0,0,1,28.13,130,28.47,28.47,0,0,1,40.5,117.3a10.34,10.34,0,0,0,2.89-1.94,32,32,0,0,0-1-5.78c-.65-2.89-1.39-6.41-1.64-7.82-.91-5.22-1.23-6.31-1.83-6.31-.9,0-13.22,12.3-16.85,16.81C10.21,127,6.19,143.45,11.35,156a37.5,37.5,0,0,0,27,22.05c3,.63,9.75.46,13.92-.37ZM63.92,173a22.71,22.71,0,0,0,6.63-7.46,28.18,28.18,0,0,0,.87-19.17c-2.19-6.21-6.67-11.71-11.48-14.08-3.42-1.68-7.55-2.53-8.33-1.71-.43.45.22,4.15,3.83,21.84,2.39,11.71,4.52,21.51,4.73,21.77.45.56,1.54.21,3.75-1.19ZM41.4,67.89C50.59,61.16,60.84,39.75,60,29.12c-.26-3.18-1.54-6.31-3.11-7.64a4.09,4.09,0,0,0-3.12-1c-2.53,0-4.6,1.07-7.57,3.89C39,31.2,34.38,50.9,37.05,63a25.28,25.28,0,0,0,1.84,5.49C39.44,69.22,39.66,69.17,41.4,67.89Z"/></g></g></svg>