<svg xmlns="http://www.w3.org/2000/svg" viewBox="0 0 15 49.62"><title>Sharp</title><g id="レイヤー_2" data-name="レイヤー 2"><g id="svg2"><path id="path4277" d="M3,43.42c0-5.19-.32-6.58-1.5-6.58q-1.5,0-1.5-3t1.5-3c1.14,0,1.5-1.23,1.5-5.11,0-4.13-.29-5-1.5-4.53S0,21,0,18.78C0,17,.63,15.53,1.5,15.2,2.62,14.77,3,13,3,8.23c0-5.17.3-6.39,1.59-6.39s1.53,1,1.25,6c-.31,5.56-.18,6,1.66,5.75s2-1.17,2.3-7c.38-8.7,2.2-8.82,2.2-.14,0,5.46.26,6.51,1.5,6s1.5.17,1.5,2.42c0,1.74-.63,3.24-1.5,3.58s-1.5,2-1.5,5c0,3.24.39,4.39,1.5,4.39s1.5,1,1.5,2.89c0,1.65-.64,3.14-1.5,3.47-1.12.43-1.5,2.22-1.5,7.11,0,3.69-.44,6.53-1,6.53s-1-2.83-1-6.5-.34-6.49-.75-6.48c-2.56.05-3.53,2.2-3.64,8-.07,4-.56,6.42-1.36,6.69S3,48.25,3,43.42ZM9.81,24.51c.28-4.46.14-4.8-1.86-4.5-1.84.28-2.19,1-2.35,5.12-.17,4.3,0,4.76,1.86,4.5,1.68-.24,2.1-1.14,2.35-5.12Z"/></g></g></svg>